<?xml version="1.0" encoding="utf-8"?>
<!-- Generator: Adobe Illustrator 26.2.1, SVG Export Plug-In . SVG Version: 6.00 Build 0)  -->
<svg version="1.1" id="Layer_1" xmlns="http://www.w3.org/2000/svg" xmlns:xlink="http://www.w3.org/1999/xlink" x="0px" y="0px"
	 viewBox="0 0 700 809" style="enable-background:new 0 0 700 809;" xml:space="preserve">
<style type="text/css">
	.st0{fill:none;stroke:#FF5B00;stroke-width:3.4812;stroke-miterlimit:10;}
	.st1{fill:#FF5B00;}
</style>
<g>
	<line class="st0" x1="350.3" y1="16" x2="350.3" y2="188.1"/>
	<g>
		<path class="st1" d="M355.1,792.7h-9.6v-7.6c0-2.7,2.2-4.8,4.8-4.8l0,0c2.7,0,4.8,2.2,4.8,4.8V792.7z"/>
		<g>
			<path class="st1" d="M310.9,783.7c-0.4-0.2-0.7-0.4-0.9-0.6c-0.3-0.3-0.5-0.6-0.7-0.9c-0.2-0.3-0.2-0.7-0.2-1.1
				c0-0.4,0.1-0.8,0.3-1.3c0.1-0.3,0.3-0.5,0.4-0.6c0.1-0.2,0.3-0.3,0.5-0.4c0.2-0.1,0.3-0.2,0.5-0.3c0.2-0.1,0.3-0.1,0.4-0.2
				c-0.1-0.1-0.2-0.3-0.3-0.5c-0.1-0.2-0.1-0.4-0.2-0.7c0-0.3,0-0.5,0-0.8c0-0.3,0.1-0.6,0.3-0.9c0.2-0.5,0.5-0.8,0.8-1.1
				c0.3-0.3,0.7-0.4,1.1-0.5c0.4-0.1,0.8-0.1,1.3,0s0.9,0.2,1.3,0.4l5.4,2.6l-4.6,9.4L310.9,783.7z M312.8,779.8
				c-0.5-0.2-0.9-0.3-1.2-0.1s-0.6,0.4-0.8,0.8c-0.2,0.4-0.2,0.7-0.1,1.1c0.1,0.3,0.4,0.6,0.9,0.8l4,2l1.3-2.6L312.8,779.8z
				 M314.8,775.7c-0.6-0.3-1.2-0.4-1.6-0.3c-0.4,0.1-0.7,0.4-1,0.8c-0.1,0.2-0.2,0.4-0.2,0.6c0,0.2,0,0.4,0.1,0.6
				c0.1,0.2,0.2,0.4,0.4,0.6c0.2,0.2,0.5,0.4,0.8,0.5l4,2l1.3-2.8L314.8,775.7z"/>
			<path class="st1" d="M295.1,773.4c-0.3-0.3-0.6-0.6-0.9-0.9c-0.2-0.3-0.4-0.7-0.5-1.1c-0.1-0.4-0.1-0.8,0-1.2
				c0.1-0.4,0.3-0.8,0.6-1.2c0.3-0.4,0.7-0.8,1.1-1c0.4-0.2,0.7-0.3,1.1-0.3c0.3,0,0.7,0,0.9,0.1c0.3,0.1,0.5,0.2,0.7,0.3l1-4.8
				l1.3,1.1l-1,4.7l3.1,2.4l2.7-3.4l1.2,0.9l-6.4,8.2L295.1,773.4z M299.7,775.1l1.9-2.4l-3.7-2.9c-0.4-0.3-0.9-0.5-1.3-0.5
				c-0.4,0-0.8,0.2-1.1,0.6c-0.2,0.2-0.3,0.5-0.3,0.7c0,0.2,0,0.4,0,0.6c0.1,0.2,0.2,0.4,0.3,0.5c0.1,0.2,0.3,0.3,0.5,0.4
				L299.7,775.1z"/>
			<path class="st1" d="M285.7,764.3l7.7-7.1l1,1.1l-7.7,7.1L285.7,764.3z"/>
			<path class="st1" d="M278.7,755.6l3.3-9.5l0,0l-6.7,4.3l-0.8-1.3l8.8-5.6l0.8,1.3l-3.3,9.5l0,0l6.7-4.3l0.8,1.3l-8.8,5.6
				L278.7,755.6z"/>
			<path class="st1" d="M272.9,734l-1.7-4.5l2.6-1c0.4-0.2,0.9-0.2,1.3-0.1s0.9,0.3,1.3,0.6c0.4,0.3,0.8,0.7,1.1,1.2
				c0.3,0.5,0.6,1,0.8,1.6c0.2,0.7,0.4,1.3,0.4,2.1c0,0.7-0.1,1.4-0.4,2.1c-0.2,0.7-0.6,1.3-1.2,1.8c-0.5,0.5-1.2,1-2,1.3
				c-0.7,0.3-1.4,0.4-2.1,0.3c-0.7,0-1.4-0.2-2-0.5c-0.6-0.3-1.2-0.7-1.7-1.3c-0.5-0.6-0.9-1.2-1.2-2c-0.2-0.6-0.3-1.1-0.4-1.6
				c0-0.5,0-1,0-1.4c0.1-0.4,0.2-0.8,0.3-1.1s0.2-0.6,0.3-0.7l1.4,0.6c-0.1,0.2-0.2,0.4-0.3,0.6c-0.1,0.2-0.2,0.5-0.2,0.8
				c-0.1,0.3-0.1,0.6,0,1c0,0.4,0.1,0.8,0.3,1.2c0.2,0.7,0.6,1.2,0.9,1.6s0.8,0.8,1.3,1c0.5,0.2,1,0.4,1.5,0.4c0.5,0,1-0.1,1.6-0.3
				c0.5-0.2,0.9-0.4,1.3-0.8c0.4-0.3,0.7-0.8,0.9-1.2c0.2-0.5,0.3-1,0.3-1.6s-0.1-1.2-0.3-1.8c-0.2-0.4-0.3-0.8-0.6-1.1
				c-0.2-0.3-0.5-0.6-0.7-0.8s-0.5-0.3-0.7-0.4s-0.5-0.1-0.7,0l-1.1,0.4l1.1,3.1L272.9,734z"/>
			<path class="st1" d="M264.6,721.4l10.3-1.9l0.3,1.5l-10.3,1.9L264.6,721.4z"/>
			<path class="st1" d="M263.4,710.3l7.8-6.3l0,0l-7.9,0.1l0-1.5l10.4-0.2l0,1.5l-7.8,6.3l0,0l7.9-0.1l0,1.5l-10.4,0.2L263.4,710.3z
				"/>
			<path class="st1" d="M269.9,688.9l1-4.7l2.7,0.6c0.5,0.1,0.9,0.3,1.2,0.6c0.3,0.3,0.6,0.7,0.8,1.2c0.2,0.5,0.3,1,0.3,1.6
				c0,0.6,0,1.2-0.2,1.8c-0.1,0.7-0.4,1.3-0.8,2c-0.4,0.6-0.8,1.1-1.4,1.6s-1.2,0.7-1.9,0.9c-0.7,0.2-1.5,0.2-2.4,0
				c-0.7-0.2-1.4-0.4-2-0.8c-0.6-0.4-1.1-0.9-1.5-1.5c-0.4-0.6-0.6-1.3-0.8-2c-0.1-0.7-0.1-1.5,0-2.3c0.1-0.6,0.3-1.1,0.5-1.6
				c0.2-0.4,0.5-0.8,0.8-1.1c0.3-0.3,0.5-0.6,0.8-0.8c0.3-0.2,0.5-0.4,0.7-0.5l0.8,1.2c-0.1,0.1-0.3,0.2-0.5,0.4
				c-0.2,0.1-0.4,0.3-0.6,0.5s-0.4,0.5-0.6,0.8c-0.2,0.3-0.3,0.7-0.4,1.2c-0.1,0.7-0.2,1.3-0.1,1.9c0.1,0.6,0.3,1.1,0.6,1.5
				s0.6,0.8,1.1,1.1s0.9,0.5,1.5,0.6c0.5,0.1,1,0.1,1.5,0c0.5-0.1,1-0.3,1.4-0.6c0.4-0.3,0.8-0.7,1.1-1.1c0.3-0.5,0.5-1,0.7-1.7
				c0.1-0.4,0.1-0.9,0.1-1.3c0-0.4-0.1-0.7-0.2-1c-0.1-0.3-0.2-0.5-0.4-0.7c-0.2-0.2-0.4-0.3-0.6-0.4L272,686l-0.7,3.2L269.9,688.9z
				"/>
			<path class="st1" d="M277.1,658.8l1.3,0.8l-1.8,3.2l7.7,4.5l-0.8,1.3l-7.7-4.5l-1.8,3.2l-1.3-0.8L277.1,658.8z"/>
			<path class="st1" d="M282.3,651.6l1-1.1l3.2,2.8l4.1-4.6l-3.2-2.8l1-1.1l7.8,6.9l-1,1.1l-3.5-3.1l-4.1,4.6l3.5,3.1l-1,1.1
				L282.3,651.6z"/>
			<path class="st1" d="M302.6,633.2l0.9,1.2l-5.7,4.2l1.6,2.2l2.9-2.1l0.9,1.2l-2.9,2.1l1.9,2.6l5.9-4.3l0.9,1.2l-7.1,5.2l-6.2-8.4
				L302.6,633.2z"/>
			<path class="st1" d="M325.7,622.6c0.4-0.1,0.7-0.2,1.1-0.2c0.4,0,0.7,0.1,1.1,0.2c0.3,0.1,0.6,0.3,0.9,0.6s0.5,0.7,0.6,1.1
				c0.1,0.3,0.1,0.5,0.1,0.8c0,0.2,0,0.4,0,0.6c0,0.2-0.1,0.4-0.2,0.5s-0.1,0.3-0.2,0.4c0.2,0,0.3,0.1,0.5,0.2
				c0.2,0.1,0.4,0.2,0.6,0.4c0.2,0.2,0.4,0.4,0.6,0.6c0.2,0.2,0.3,0.5,0.4,0.8c0.1,0.5,0.2,0.9,0.1,1.3c-0.1,0.4-0.2,0.8-0.4,1.1
				c-0.2,0.3-0.5,0.6-0.9,0.9s-0.8,0.5-1.3,0.6l-5.7,1.8l-3.1-10L325.7,622.6z M327,626.8c0.5-0.2,0.8-0.4,1-0.7
				c0.2-0.3,0.2-0.7,0-1.2c-0.1-0.4-0.3-0.7-0.7-0.8s-0.7-0.1-1.2,0l-4.3,1.3l0.9,2.7L327,626.8z M328.4,631.1
				c0.7-0.2,1.1-0.5,1.4-0.8c0.2-0.3,0.3-0.8,0.1-1.2c-0.1-0.2-0.2-0.4-0.3-0.6c-0.1-0.2-0.3-0.3-0.5-0.4c-0.2-0.1-0.4-0.1-0.7-0.1
				c-0.3,0-0.6,0.1-1,0.2l-4.3,1.3l0.9,2.9L328.4,631.1z"/>
			<path class="st1" d="M346.3,619l0.1,1.5l-7,0.7l0.3,2.7l3.5-0.3l0.1,1.5l-3.5,0.3l0.3,3.2l7.3-0.7l0.1,1.5l-8.8,0.8l-1-10.4
				L346.3,619z"/>
			<path class="st1" d="M363.8,630.5l-1.7-0.2l-1.1-3.6l-4.6-0.5l-1.9,3.3l-1.6-0.2l5.8-9.9l1.7,0.2L363.8,630.5z M359.2,621.4
				l-2,3.4l3.3,0.3L359.2,621.4z"/>
			<path class="st1" d="M379.7,631c-0.2,0.5-0.4,0.9-0.6,1.4s-0.6,0.8-1.1,1.1s-1,0.4-1.6,0.5c-0.6,0-1.4-0.1-2.3-0.4
				c-0.9-0.3-1.6-0.7-2.1-1.1c-0.5-0.4-0.8-0.9-1-1.4c-0.2-0.5-0.3-1-0.2-1.5s0.1-1,0.3-1.5l2-6.2l1.4,0.5l-2,6.2
				c-0.1,0.4-0.2,0.7-0.2,1c0,0.3,0.1,0.7,0.2,1c0.1,0.3,0.4,0.6,0.7,0.8c0.3,0.3,0.8,0.5,1.4,0.7c0.6,0.2,1.1,0.3,1.5,0.3
				c0.4,0,0.8-0.1,1.1-0.2c0.3-0.2,0.5-0.4,0.7-0.6c0.2-0.3,0.3-0.6,0.5-1l2-6.2l1.4,0.5L379.7,631z"/>
			<path class="st1" d="M397.5,632.8l-0.8,1.3l-3.2-1.8l-4.5,7.8l-1.3-0.7l4.5-7.8l-3.2-1.8l0.7-1.3L397.5,632.8z"/>
			<path class="st1" d="M404.4,637.8l-0.5,5.5l5.3-1.3l1.4,1.2l-7.2,1.7l-2.9,3.4l-1.1-1l2.9-3.4l0.7-7.3L404.4,637.8z"/>
			<path class="st1" d="M415.2,665c-0.1-0.7-0.1-1.4,0-2.1c0.1-0.7,0.4-1.3,0.8-1.9s1-1.1,1.7-1.5c0.7-0.4,1.4-0.7,2.1-0.8
				c0.7-0.1,1.4,0,2.1,0.2c0.7,0.2,1.3,0.5,1.9,1s1,1,1.4,1.6s0.6,1.3,0.8,2c0.1,0.7,0.1,1.4,0,2.1c-0.1,0.7-0.4,1.3-0.8,1.9
				s-1,1.1-1.7,1.5s-1.4,0.7-2.1,0.8s-1.4,0-2.1-0.2c-0.7-0.2-1.3-0.5-1.9-1c-0.6-0.4-1-1-1.4-1.6S415.3,665.7,415.2,665z
				 M418.3,667.5c0.4,0.3,0.9,0.5,1.4,0.7c0.5,0.1,1,0.2,1.5,0.1c0.5-0.1,1-0.2,1.5-0.5c0.5-0.3,0.8-0.6,1.2-1s0.5-0.9,0.6-1.4
				s0.1-1,0.1-1.5c-0.1-0.5-0.3-1.1-0.6-1.6c-0.3-0.5-0.7-0.9-1.1-1.2c-0.4-0.3-0.9-0.5-1.4-0.7c-0.5-0.1-1-0.2-1.5-0.1
				c-0.5,0.1-1,0.2-1.5,0.5c-0.5,0.3-0.8,0.6-1.2,1s-0.5,0.9-0.6,1.4c-0.1,0.5-0.1,1-0.1,1.5c0.1,0.5,0.3,1.1,0.6,1.6
				C417.5,666.7,417.9,667.1,418.3,667.5z"/>
			<path class="st1" d="M428.4,685.7c-0.5,0.2-1,0.2-1.5,0.3c-0.5,0-1,0-1.5-0.2c-0.5-0.2-0.9-0.5-1.3-1c-0.4-0.5-0.8-1.2-1.1-2.1
				s-0.4-1.7-0.4-2.3s0.2-1.2,0.5-1.6s0.6-0.8,1.1-1.1c0.4-0.3,0.9-0.5,1.4-0.6l6.2-2l0.5,1.4l-6.2,2c-0.4,0.1-0.7,0.3-1,0.5
				c-0.3,0.2-0.5,0.4-0.7,0.7s-0.2,0.6-0.2,1.1s0.1,0.9,0.3,1.5c0.2,0.6,0.4,1,0.7,1.4c0.2,0.3,0.5,0.6,0.8,0.7
				c0.3,0.1,0.6,0.2,1,0.2s0.7-0.1,1-0.2l6.2-2l0.5,1.4L428.4,685.7z"/>
			<path class="st1" d="M437.3,701.2l-1.5,0.2l-0.4-3.6l-8.9,0.9l-0.2-1.5l8.9-0.9l-0.4-3.6l1.5-0.2L437.3,701.2z"/>
			<path class="st1" d="M436.1,721.1l-10.3-1.7l0.2-1.5l10.3,1.7L436.1,721.1z"/>
			<path class="st1" d="M433.5,732l-9.5,3.2l0,0l7.5,2.6l-0.5,1.4l-9.9-3.5l0.5-1.4l9.5-3.2l0,0l-7.5-2.6l0.5-1.4l9.9,3.5L433.5,732
				z"/>
			<path class="st1" d="M421.1,756.9l-5.5-0.2l1.6,5.2l-1.2,1.5l-2-7.1l-3.6-2.8l0.9-1.2l3.6,2.8l7.3,0.3L421.1,756.9z"/>
			<path class="st1" d="M401.6,763.3c0.7-0.2,1.4-0.3,2.1-0.3s1.4,0.2,2,0.5c0.7,0.3,1.3,0.8,1.8,1.4c0.5,0.6,0.9,1.3,1.1,2
				c0.2,0.7,0.3,1.4,0.2,2.1s-0.3,1.4-0.6,2c-0.3,0.6-0.8,1.2-1.4,1.7c-0.6,0.5-1.2,0.8-1.9,1.1c-0.7,0.2-1.4,0.3-2.1,0.3
				s-1.4-0.2-2-0.5c-0.7-0.3-1.3-0.8-1.8-1.4s-0.9-1.3-1.1-2c-0.2-0.7-0.3-1.4-0.2-2.1c0.1-0.7,0.3-1.4,0.6-2
				c0.3-0.6,0.8-1.2,1.4-1.7S400.9,763.5,401.6,763.3z M399.6,766.8c-0.2,0.5-0.4,1-0.4,1.5c0,0.5,0,1,0.2,1.5
				c0.2,0.5,0.4,1,0.8,1.4s0.8,0.7,1.2,1c0.5,0.2,1,0.4,1.5,0.4c0.5,0,1,0,1.5-0.2c0.5-0.2,1-0.4,1.5-0.8s0.8-0.8,1.1-1.3
				s0.4-1,0.4-1.5c0-0.5,0-1-0.2-1.5s-0.4-1-0.8-1.4c-0.3-0.4-0.8-0.7-1.2-1c-0.5-0.2-1-0.4-1.5-0.4c-0.5,0-1,0-1.5,0.2
				c-0.5,0.2-1,0.4-1.5,0.8S399.9,766.3,399.6,766.8z"/>
			<path class="st1" d="M383.3,779.7c-0.2-0.4-0.4-0.9-0.5-1.4c-0.1-0.5-0.1-1,0-1.5c0.1-0.5,0.4-1,0.8-1.5s1.1-1,1.9-1.4
				c0.8-0.4,1.6-0.7,2.2-0.7c0.6-0.1,1.2,0,1.7,0.2c0.5,0.2,0.9,0.5,1.2,0.9c0.3,0.4,0.6,0.8,0.8,1.2l3,5.8L393,782l-3-5.8
				c-0.2-0.3-0.4-0.6-0.6-0.9c-0.2-0.2-0.5-0.4-0.8-0.5c-0.3-0.1-0.7-0.1-1.1-0.1c-0.4,0.1-0.9,0.2-1.4,0.5c-0.5,0.3-1,0.6-1.2,0.9
				c-0.3,0.3-0.5,0.6-0.6,0.9c-0.1,0.3-0.1,0.6,0,1c0.1,0.3,0.2,0.7,0.4,1l3,5.8l-1.3,0.7L383.3,779.7z"/>
		</g>
	</g>
	<g>
		<g>
			<path class="st1" d="M257.1,204.5v2.2c9.8,8.2,11.1,15.5-0.3,41.1l-37,78.6l-43.5-81.8c-10.3-19.3-10.3-30.7-3.3-37.8v-2.2h-47.6
				v2.2c8.4,7.1,17.7,15.8,23.6,26.6c5.7,11.2,51.4,96.8,51.4,96.8v105.8c0,9.5-1.9,13.6-6,16c0,0.5,0,1.9,0,1.9l6.8-3.6
				c0.3-0.8,0.8-1.5,1.6-2c2.1-1.4,4.3-2.6,5.9-4.3c0.9-0.9,1.7-1.8,2.7-2.6c1.1-0.9,2.4-1.4,3.7-1.8c0.3-0.1,0.6-0.2,0.9-0.3
				c0.1,0,0.4-0.1,0.6-0.2c0.1-0.1,0.4-0.2,0.4-0.2c0.3-0.2,0.6-0.3,0.9-0.5c1-0.5,2-1,3-1.5c2.3-1.1,4.6-2.1,7.2-2.2v-0.6
				c-4.4-2.4-6.3-8.4-6.3-18v-89.1l34.8-74.8c13.9-29.4,19.8-35.1,32.4-45.7v-2.2H257.1z"/>
			<path class="st1" d="M383.1,324.4c0,43.5-37.2,72-73.7,72c-36.7,0-68-22.3-68-60.4c0-44.9,37.2-72,73.7-72
				S383.1,286.9,383.1,324.4z M360.3,315.7c-9.5-32.6-35.1-55.7-66.1-46.8c-31,9-39.4,43-29.9,75.8c9.5,32.6,35.1,56,66.1,46.8
				C361.4,382.6,369.8,348.6,360.3,315.7z"/>
			<path class="st1" d="M514.1,394.8h-27.7v-66.1c-3.5,30.7-12.8,67.7-48.1,67.7c-25,0-44.9-15.8-44.9-47.9V285
				c0-9.5-0.8-12.2-6-13.1c0-0.5,0-1.9,0-1.9l25.6-6h1.9v88.6c0,23.6,12.2,43.2,35.6,38.9c30.4-6,35.9-62.8,35.9-85.6V285
				c0-9.5-0.8-12.2-6-13.1c0-0.5,0-1.9,0-1.9l25.6-6h1.9v112.8c0,9.5,5.8,16.8,10.2,19.2C518,396.7,514.1,394.8,514.1,394.8z"/>
			<path class="st1" d="M163.3,511.4c0,38.3-45.1,51.1-80.2,51.1H8.3c0,0,0-1.4,0-1.9c4.1-2.4,6-6.5,6-16V390.4c0-9.5-1.9-13.6-6-16
				c0-0.5,0-2.2,0-2.2h63.1c35.1,0,80.2,7.1,80.2,45.4c0,29.1-26.6,40-54.9,43.5C128.8,464.1,163.3,478.2,163.3,511.4z M35.8,460.3
				h35.6c44.6,0,58.7-18.8,58.7-42.7c0-24.2-14.1-43.2-58.7-43.2H35.8V460.3z M142.1,511.4c0-23.9-14.4-48.9-59-48.9H35.8v98.1h47.3
				C127.7,560.6,142.1,535.6,142.1,511.4z"/>
			<path class="st1" d="M301.9,519.3c-1.6,19.3-18.8,44.9-57.4,44.9c-37.5,0-73.7-18.5-74.8-63.3c-1.4-47,41.3-67.4,71.2-69.1
				c23.1-1.1,54.9,10.1,58.7,43c-2.4,0-19.3,0-19.3,0h-6C289.9,478.7,304.1,494.5,301.9,519.3z M263.3,474.7h-70.4
				c-3.5,14.4-2.7,30.5,1.9,43.5c10.1,28.6,30.5,41.1,58.2,40c23.4-1.1,43.8-17.1,46.5-38.3C302.7,491.5,284,474.7,263.3,474.7z
				 M193.4,472.5h86.7c-3.5-23.7-24.7-42.7-51.4-37.5C210.3,438.5,198.3,454,193.4,472.5z"/>
			<path class="st1" d="M487.8,431.7v2.2c-10.9,10.3-18.5,22-27.2,42.7l-24.2,63.3l8.7,22.6h-21.5c0,0-33.4-87.5-34.8-91.1
				l-22.3,71.8l8.2,19.3h-21.5l-33.7-79.4c-11.4-26.6-17.1-38.3-30.5-49.2v-2.2h41.9v2.2c-7.1,7.3-4.6,14.7,1.6,29.9l32.6,76.7
				l22.6-71.8c-6.8-16.9-11.7-26.1-22.3-34.8v-2.2h41.9v2.2c-8.2,8.4-4.6,17.1,2.7,37l25.6,66.3l20.1-53.3c9.8-25.3,12.2-40.2,0-50
				v-2.2H487.8z"/>
			<path class="st1" d="M585.3,514.9c-5.2,25.6-16.6,49.2-45.1,49.2c-24.2,0-39.1-15.8-39.1-47.9v-82.4h-16v-2.2
				c23.1,0,25-24.2,25-37.2h21.5c0,20.9-20.7,36.4-37,37.2h60.1v2.2h-32.1v86.5c0,23.6,6.5,41.9,29.6,38.9
				c17.9-2.5,26.9-23.9,31.8-44.9L585.3,514.9z"/>
			<path class="st1" d="M661.1,484.2c0,0-21.8,54.1-31.5,78.3c-9.8,24.5-22,44.9-43.5,44.9c-14.7,0-25.3-6.8-32.1-19.3l21.2-19.3
				l1.6,1.4c-2.7,15.2,0.3,36.2,15.2,34.5c14.1-1.6,25.3-19.6,34.3-39.7l-34.8-81.8c-11.4-26.6-17.1-38.3-30.2-49.2v-2.2h41.6v2.2
				c-6.8,7.3-4.6,14.7,1.6,29.9l32.4,75.6l22.3-55.5c10.1-25,13.3-40,1.1-50v-2.2h32.1v2.2C680.6,445.9,671.1,459.2,661.1,484.2z"/>
		</g>
	</g>
</g>
</svg>
